<?xml version="1.0" encoding="iso-8859-1"?>
<!-- Generator: Adobe Illustrator 18.0.0, SVG Export Plug-In . SVG Version: 6.00 Build 0)  -->
<!DOCTYPE svg PUBLIC "-//W3C//DTD SVG 1.1//EN" "http://www.w3.org/Graphics/SVG/1.1/DTD/svg11.dtd">
<svg version="1.1" id="Capa_1" xmlns="http://www.w3.org/2000/svg" xmlns:xlink="http://www.w3.org/1999/xlink" x="0px" y="0px"
	 viewBox="0 0 473.194 473.194" style="enable-background:new 0 0 473.194 473.194;" xml:space="preserve">
<g>
	<path d="M403.57,203.865v-89.71c0-9.15-7.409-16.559-16.551-16.559h-6.409c0.694-11.929,2.851-22.134,5.4-23.66
		c4.359,0,7.886-3.527,7.886-7.886c0-4.36-3.527-7.887-7.886-7.887c-4.358,0-8.333,1.763-11.506,5.105
		c-6.971,7.341-9.148,22.505-9.727,34.327h-6.516c-9.141,0-16.551,7.409-16.551,16.559v85.967h-74.182V59.935
		c0-9.15-7.409-16.559-16.551-16.559h-6.409c0.694-11.929,2.85-22.134,5.399-23.66c4.36,0,7.887-3.527,7.887-7.886
		c0-4.36-3.527-7.887-7.887-7.887c-4.358,0-8.333,1.763-11.506,5.106c-6.97,7.341-9.149,22.505-9.727,34.327h-6.516
		c-9.141,0-16.551,7.409-16.551,16.559v140.187h-74.183v-85.967c0-9.15-7.409-16.559-16.551-16.559h-6.409
		c0.694-11.929,2.851-22.134,5.399-23.66c4.359,0,7.887-3.527,7.887-7.886c0-4.36-3.527-7.887-7.887-7.887
		c-4.358,0-8.333,1.763-11.506,5.105c-6.97,7.341-9.148,22.505-9.728,34.327h-6.516c-9.141,0-16.551,7.409-16.551,16.559v89.71
		C29.452,215.31,0,252.201,0,296.04v33.425c1.278-1.918,3.097-3.481,5.307-4.421c4.528-1.918,9.765-0.893,13.246,2.588
		l17.507,17.505c1.987,1.98,4.675,3.096,7.478,3.096c2.805,0,5.5-1.109,7.478-3.096l17.014-17.013
		c1.986-1.979,4.673-3.096,7.478-3.096c2.803,0,5.491,1.117,7.478,3.096l17.005,17.013c1.979,1.98,4.675,3.096,7.477,3.096
		c2.805,0,5.5-1.117,7.479-3.096l17.005-17.013c1.98-1.979,4.675-3.096,7.478-3.096c2.803,0,5.499,1.117,7.478,3.096l17.006,17.013
		c1.986,1.98,4.674,3.096,7.478,3.096c2.803,0,5.491-1.117,7.478-3.096l17.013-17.013c1.98-1.979,4.675-3.096,7.478-3.096
		c2.805,0,5.492,1.117,7.48,3.096l17.005,17.013c1.98,1.98,4.675,3.096,7.479,3.096c2.803,0,5.498-1.117,7.477-3.096l17.005-17.013
		c1.979-1.979,4.675-3.096,7.479-3.096c2.803,0,5.499,1.117,7.478,3.096l17.005,17.013c1.987,1.98,4.675,3.096,7.478,3.096
		c2.805,0,5.5-1.117,7.48-3.096l17.013-17.013c1.986-1.979,4.675-3.096,7.478-3.096c2.803,0,5.491,1.117,7.478,3.096l17.005,17.013
		c1.979,1.98,4.675,3.096,7.48,3.096c2.803,0,5.498-1.117,7.478-3.096l17.004-17.013c1.98-1.979,4.675-3.096,7.479-3.096
		c2.804,0,5.5,1.117,7.478,3.096l17.006,17.013c1.986,1.98,4.675,3.096,7.478,3.096c2.803,0,5.491-1.117,7.478-3.096l17.991-17.991
		c3.459-3.458,8.65-4.489,13.163-2.618c4.513,1.864,7.456,6.27,7.456,11.151V296.04C473.194,252.201,443.742,215.31,403.57,203.865z
		"/>
	<path d="M447.777,385.125H23.736c-10.912,0-20.139-6.924-23.736-16.597v74.736c0,14.357,11.63,25.986,25.977,25.986h421.239
		c14.349,0,25.979-11.629,25.979-25.986V359.71C473.194,373.749,461.818,385.125,447.777,385.125z"/>
</g>
<g>
</g>
<g>
</g>
<g>
</g>
<g>
</g>
<g>
</g>
<g>
</g>
<g>
</g>
<g>
</g>
<g>
</g>
<g>
</g>
<g>
</g>
<g>
</g>
<g>
</g>
<g>
</g>
<g>
</g>
</svg>
